<mxfile host="app.diagrams.net" modified="2023-03-09T20:06:25.225Z" agent="5.0 (X11)" etag="HB1yiE3lHHKsAXYmilwV" version="21.0.6" type="github">
  <diagram name="Page-1" id="OvV76CpGgYU0NZODSgw7">
    <mxGraphModel dx="1635" dy="935" grid="1" gridSize="10" guides="1" tooltips="1" connect="1" arrows="1" fold="1" page="1" pageScale="1" pageWidth="1100" pageHeight="850" math="0" shadow="0">
      <root>
        <mxCell id="0" />
        <mxCell id="1" parent="0" />
        <mxCell id="UbQwp_BWANUmea5kKcZG-19" value="api endpoint&lt;br&gt;(probably flask)" style="swimlane;fontStyle=0;childLayout=stackLayout;horizontal=1;startSize=30;horizontalStack=0;resizeParent=1;resizeParentMax=0;resizeLast=0;collapsible=1;marginBottom=0;whiteSpace=wrap;html=1;" vertex="1" parent="1">
          <mxGeometry x="150" y="170" width="220" height="120" as="geometry" />
        </mxCell>
        <mxCell id="UbQwp_BWANUmea5kKcZG-20" value="respond to requests from the interface " style="text;strokeColor=none;fillColor=none;align=left;verticalAlign=middle;spacingLeft=4;spacingRight=4;overflow=hidden;points=[[0,0.5],[1,0.5]];portConstraint=eastwest;rotatable=0;whiteSpace=wrap;html=1;" vertex="1" parent="UbQwp_BWANUmea5kKcZG-19">
          <mxGeometry y="30" width="220" height="30" as="geometry" />
        </mxCell>
        <mxCell id="UbQwp_BWANUmea5kKcZG-21" value="&quot;decode&quot; and route the api calls to the correct systems" style="text;strokeColor=none;fillColor=none;align=left;verticalAlign=middle;spacingLeft=4;spacingRight=4;overflow=hidden;points=[[0,0.5],[1,0.5]];portConstraint=eastwest;rotatable=0;whiteSpace=wrap;html=1;" vertex="1" parent="UbQwp_BWANUmea5kKcZG-19">
          <mxGeometry y="60" width="220" height="30" as="geometry" />
        </mxCell>
        <mxCell id="UbQwp_BWANUmea5kKcZG-22" value="Serve main html page(&#39;s) ???" style="text;strokeColor=none;fillColor=none;align=left;verticalAlign=middle;spacingLeft=4;spacingRight=4;overflow=hidden;points=[[0,0.5],[1,0.5]];portConstraint=eastwest;rotatable=0;whiteSpace=wrap;html=1;" vertex="1" parent="UbQwp_BWANUmea5kKcZG-19">
          <mxGeometry y="90" width="220" height="30" as="geometry" />
        </mxCell>
        <mxCell id="UbQwp_BWANUmea5kKcZG-62" style="edgeStyle=orthogonalEdgeStyle;rounded=0;orthogonalLoop=1;jettySize=auto;html=1;exitX=0.5;exitY=1;exitDx=0;exitDy=0;entryX=0;entryY=0.5;entryDx=0;entryDy=0;" edge="1" parent="1" source="UbQwp_BWANUmea5kKcZG-23" target="UbQwp_BWANUmea5kKcZG-61">
          <mxGeometry relative="1" as="geometry" />
        </mxCell>
        <mxCell id="UbQwp_BWANUmea5kKcZG-23" value="server settings" style="swimlane;fontStyle=0;childLayout=stackLayout;horizontal=1;startSize=30;horizontalStack=0;resizeParent=1;resizeParentMax=0;resizeLast=0;collapsible=1;marginBottom=0;whiteSpace=wrap;html=1;" vertex="1" parent="1">
          <mxGeometry x="40" y="360" width="200" height="90" as="geometry" />
        </mxCell>
        <mxCell id="UbQwp_BWANUmea5kKcZG-24" value="read/write server.properties" style="text;strokeColor=none;fillColor=none;align=left;verticalAlign=middle;spacingLeft=4;spacingRight=4;overflow=hidden;points=[[0,0.5],[1,0.5]];portConstraint=eastwest;rotatable=0;whiteSpace=wrap;html=1;" vertex="1" parent="UbQwp_BWANUmea5kKcZG-23">
          <mxGeometry y="30" width="200" height="30" as="geometry" />
        </mxCell>
        <mxCell id="UbQwp_BWANUmea5kKcZG-25" value="convert settings to json" style="text;strokeColor=none;fillColor=none;align=left;verticalAlign=middle;spacingLeft=4;spacingRight=4;overflow=hidden;points=[[0,0.5],[1,0.5]];portConstraint=eastwest;rotatable=0;whiteSpace=wrap;html=1;" vertex="1" parent="UbQwp_BWANUmea5kKcZG-23">
          <mxGeometry y="60" width="200" height="30" as="geometry" />
        </mxCell>
        <mxCell id="UbQwp_BWANUmea5kKcZG-63" style="edgeStyle=orthogonalEdgeStyle;rounded=0;orthogonalLoop=1;jettySize=auto;html=1;exitX=0.5;exitY=1;exitDx=0;exitDy=0;entryX=1;entryY=0.5;entryDx=0;entryDy=0;" edge="1" parent="1" source="UbQwp_BWANUmea5kKcZG-27" target="UbQwp_BWANUmea5kKcZG-61">
          <mxGeometry relative="1" as="geometry" />
        </mxCell>
        <mxCell id="UbQwp_BWANUmea5kKcZG-27" value="plugins" style="swimlane;fontStyle=0;childLayout=stackLayout;horizontal=1;startSize=30;horizontalStack=0;resizeParent=1;resizeParentMax=0;resizeLast=0;collapsible=1;marginBottom=0;whiteSpace=wrap;html=1;" vertex="1" parent="1">
          <mxGeometry x="280" y="360" width="200" height="150" as="geometry" />
        </mxCell>
        <mxCell id="UbQwp_BWANUmea5kKcZG-28" value="list all plugins" style="text;strokeColor=none;fillColor=none;align=left;verticalAlign=middle;spacingLeft=4;spacingRight=4;overflow=hidden;points=[[0,0.5],[1,0.5]];portConstraint=eastwest;rotatable=0;whiteSpace=wrap;html=1;" vertex="1" parent="UbQwp_BWANUmea5kKcZG-27">
          <mxGeometry y="30" width="200" height="30" as="geometry" />
        </mxCell>
        <mxCell id="UbQwp_BWANUmea5kKcZG-29" value="add/remove plugin files" style="text;strokeColor=none;fillColor=none;align=left;verticalAlign=middle;spacingLeft=4;spacingRight=4;overflow=hidden;points=[[0,0.5],[1,0.5]];portConstraint=eastwest;rotatable=0;whiteSpace=wrap;html=1;" vertex="1" parent="UbQwp_BWANUmea5kKcZG-27">
          <mxGeometry y="60" width="200" height="30" as="geometry" />
        </mxCell>
        <mxCell id="UbQwp_BWANUmea5kKcZG-30" value="read/write plugin config files" style="text;strokeColor=none;fillColor=none;align=left;verticalAlign=middle;spacingLeft=4;spacingRight=4;overflow=hidden;points=[[0,0.5],[1,0.5]];portConstraint=eastwest;rotatable=0;whiteSpace=wrap;html=1;" vertex="1" parent="UbQwp_BWANUmea5kKcZG-27">
          <mxGeometry y="90" width="200" height="30" as="geometry" />
        </mxCell>
        <mxCell id="UbQwp_BWANUmea5kKcZG-31" value="send config files to front-end" style="text;strokeColor=none;fillColor=none;align=left;verticalAlign=middle;spacingLeft=4;spacingRight=4;overflow=hidden;points=[[0,0.5],[1,0.5]];portConstraint=eastwest;rotatable=0;whiteSpace=wrap;html=1;" vertex="1" parent="UbQwp_BWANUmea5kKcZG-27">
          <mxGeometry y="120" width="200" height="30" as="geometry" />
        </mxCell>
        <mxCell id="UbQwp_BWANUmea5kKcZG-32" value="front end " style="swimlane;fontStyle=0;childLayout=stackLayout;horizontal=1;startSize=30;horizontalStack=0;resizeParent=1;resizeParentMax=0;resizeLast=0;collapsible=1;marginBottom=0;whiteSpace=wrap;html=1;" vertex="1" parent="1">
          <mxGeometry x="480" y="80" width="240" height="120" as="geometry" />
        </mxCell>
        <mxCell id="UbQwp_BWANUmea5kKcZG-33" value="interface with python api" style="text;strokeColor=none;fillColor=none;align=left;verticalAlign=middle;spacingLeft=4;spacingRight=4;overflow=hidden;points=[[0,0.5],[1,0.5]];portConstraint=eastwest;rotatable=0;whiteSpace=wrap;html=1;" vertex="1" parent="UbQwp_BWANUmea5kKcZG-32">
          <mxGeometry y="30" width="240" height="30" as="geometry" />
        </mxCell>
        <mxCell id="UbQwp_BWANUmea5kKcZG-34" value="interface with console (socket???)" style="text;strokeColor=none;fillColor=none;align=left;verticalAlign=middle;spacingLeft=4;spacingRight=4;overflow=hidden;points=[[0,0.5],[1,0.5]];portConstraint=eastwest;rotatable=0;whiteSpace=wrap;html=1;" vertex="1" parent="UbQwp_BWANUmea5kKcZG-32">
          <mxGeometry y="60" width="240" height="30" as="geometry" />
        </mxCell>
        <mxCell id="UbQwp_BWANUmea5kKcZG-35" value="display everything on the html page" style="text;strokeColor=none;fillColor=none;align=left;verticalAlign=middle;spacingLeft=4;spacingRight=4;overflow=hidden;points=[[0,0.5],[1,0.5]];portConstraint=eastwest;rotatable=0;whiteSpace=wrap;html=1;" vertex="1" parent="UbQwp_BWANUmea5kKcZG-32">
          <mxGeometry y="90" width="240" height="30" as="geometry" />
        </mxCell>
        <mxCell id="UbQwp_BWANUmea5kKcZG-36" value="api plugin (java)" style="swimlane;fontStyle=0;childLayout=stackLayout;horizontal=1;startSize=30;horizontalStack=0;resizeParent=1;resizeParentMax=0;resizeLast=0;collapsible=1;marginBottom=0;whiteSpace=wrap;html=1;" vertex="1" parent="1">
          <mxGeometry x="760" y="240" width="240" height="120" as="geometry" />
        </mxCell>
        <mxCell id="UbQwp_BWANUmea5kKcZG-37" value="read server console " style="text;strokeColor=none;fillColor=none;align=left;verticalAlign=middle;spacingLeft=4;spacingRight=4;overflow=hidden;points=[[0,0.5],[1,0.5]];portConstraint=eastwest;rotatable=0;whiteSpace=wrap;html=1;" vertex="1" parent="UbQwp_BWANUmea5kKcZG-36">
          <mxGeometry y="30" width="240" height="30" as="geometry" />
        </mxCell>
        <mxCell id="UbQwp_BWANUmea5kKcZG-38" value="run commands in console" style="text;strokeColor=none;fillColor=none;align=left;verticalAlign=middle;spacingLeft=4;spacingRight=4;overflow=hidden;points=[[0,0.5],[1,0.5]];portConstraint=eastwest;rotatable=0;whiteSpace=wrap;html=1;" vertex="1" parent="UbQwp_BWANUmea5kKcZG-36">
          <mxGeometry y="60" width="240" height="30" as="geometry" />
        </mxCell>
        <mxCell id="UbQwp_BWANUmea5kKcZG-39" value="host link to interface (socket???)" style="text;strokeColor=none;fillColor=none;align=left;verticalAlign=middle;spacingLeft=4;spacingRight=4;overflow=hidden;points=[[0,0.5],[1,0.5]];portConstraint=eastwest;rotatable=0;whiteSpace=wrap;html=1;" vertex="1" parent="UbQwp_BWANUmea5kKcZG-36">
          <mxGeometry y="90" width="240" height="30" as="geometry" />
        </mxCell>
        <mxCell id="UbQwp_BWANUmea5kKcZG-49" style="edgeStyle=orthogonalEdgeStyle;rounded=0;orthogonalLoop=1;jettySize=auto;html=1;exitX=0;exitY=0.25;exitDx=0;exitDy=0;entryX=0;entryY=0.5;entryDx=0;entryDy=0;" edge="1" parent="1" source="UbQwp_BWANUmea5kKcZG-40" target="UbQwp_BWANUmea5kKcZG-37">
          <mxGeometry relative="1" as="geometry">
            <Array as="points">
              <mxPoint x="800" y="450" />
              <mxPoint x="720" y="450" />
              <mxPoint x="720" y="285" />
            </Array>
          </mxGeometry>
        </mxCell>
        <mxCell id="UbQwp_BWANUmea5kKcZG-40" value="Server" style="rounded=0;whiteSpace=wrap;html=1;" vertex="1" parent="1">
          <mxGeometry x="800" y="420" width="160" height="60" as="geometry" />
        </mxCell>
        <mxCell id="UbQwp_BWANUmea5kKcZG-50" style="edgeStyle=orthogonalEdgeStyle;rounded=0;orthogonalLoop=1;jettySize=auto;html=1;exitX=0;exitY=0.5;exitDx=0;exitDy=0;entryX=0;entryY=0.25;entryDx=0;entryDy=0;" edge="1" parent="1" source="UbQwp_BWANUmea5kKcZG-38" target="UbQwp_BWANUmea5kKcZG-40">
          <mxGeometry relative="1" as="geometry" />
        </mxCell>
        <mxCell id="UbQwp_BWANUmea5kKcZG-51" style="edgeStyle=orthogonalEdgeStyle;rounded=0;orthogonalLoop=1;jettySize=auto;html=1;exitX=1;exitY=0.5;exitDx=0;exitDy=0;entryX=1;entryY=0.5;entryDx=0;entryDy=0;" edge="1" parent="1" source="UbQwp_BWANUmea5kKcZG-39" target="UbQwp_BWANUmea5kKcZG-34">
          <mxGeometry relative="1" as="geometry" />
        </mxCell>
        <mxCell id="UbQwp_BWANUmea5kKcZG-52" style="edgeStyle=orthogonalEdgeStyle;rounded=0;orthogonalLoop=1;jettySize=auto;html=1;exitX=1;exitY=0.5;exitDx=0;exitDy=0;entryX=1;entryY=0.5;entryDx=0;entryDy=0;" edge="1" parent="1" source="UbQwp_BWANUmea5kKcZG-34" target="UbQwp_BWANUmea5kKcZG-39">
          <mxGeometry relative="1" as="geometry" />
        </mxCell>
        <mxCell id="UbQwp_BWANUmea5kKcZG-56" style="edgeStyle=orthogonalEdgeStyle;rounded=0;orthogonalLoop=1;jettySize=auto;html=1;exitX=0;exitY=0.5;exitDx=0;exitDy=0;entryX=0.5;entryY=0;entryDx=0;entryDy=0;" edge="1" parent="1" source="UbQwp_BWANUmea5kKcZG-33" target="UbQwp_BWANUmea5kKcZG-19">
          <mxGeometry relative="1" as="geometry">
            <Array as="points">
              <mxPoint x="480" y="120" />
              <mxPoint x="260" y="120" />
            </Array>
          </mxGeometry>
        </mxCell>
        <mxCell id="UbQwp_BWANUmea5kKcZG-57" style="edgeStyle=orthogonalEdgeStyle;rounded=0;orthogonalLoop=1;jettySize=auto;html=1;exitX=1;exitY=0.5;exitDx=0;exitDy=0;entryX=0;entryY=0.667;entryDx=0;entryDy=0;entryPerimeter=0;" edge="1" parent="1" source="UbQwp_BWANUmea5kKcZG-20" target="UbQwp_BWANUmea5kKcZG-33">
          <mxGeometry relative="1" as="geometry">
            <mxPoint x="450" y="130" as="targetPoint" />
            <Array as="points">
              <mxPoint x="420" y="215" />
              <mxPoint x="420" y="130" />
            </Array>
          </mxGeometry>
        </mxCell>
        <mxCell id="UbQwp_BWANUmea5kKcZG-58" style="edgeStyle=orthogonalEdgeStyle;rounded=0;orthogonalLoop=1;jettySize=auto;html=1;exitX=1;exitY=0.5;exitDx=0;exitDy=0;entryX=0;entryY=0.5;entryDx=0;entryDy=0;" edge="1" parent="1" source="UbQwp_BWANUmea5kKcZG-22" target="UbQwp_BWANUmea5kKcZG-35">
          <mxGeometry relative="1" as="geometry">
            <Array as="points">
              <mxPoint x="450" y="275" />
              <mxPoint x="450" y="185" />
            </Array>
          </mxGeometry>
        </mxCell>
        <mxCell id="UbQwp_BWANUmea5kKcZG-59" style="edgeStyle=orthogonalEdgeStyle;rounded=0;orthogonalLoop=1;jettySize=auto;html=1;exitX=0;exitY=0.5;exitDx=0;exitDy=0;entryX=0.5;entryY=0;entryDx=0;entryDy=0;" edge="1" parent="1" source="UbQwp_BWANUmea5kKcZG-21" target="UbQwp_BWANUmea5kKcZG-23">
          <mxGeometry relative="1" as="geometry">
            <Array as="points">
              <mxPoint x="140" y="245" />
            </Array>
          </mxGeometry>
        </mxCell>
        <mxCell id="UbQwp_BWANUmea5kKcZG-60" style="edgeStyle=orthogonalEdgeStyle;rounded=0;orthogonalLoop=1;jettySize=auto;html=1;exitX=1;exitY=0.5;exitDx=0;exitDy=0;entryX=0.5;entryY=0;entryDx=0;entryDy=0;" edge="1" parent="1" source="UbQwp_BWANUmea5kKcZG-21" target="UbQwp_BWANUmea5kKcZG-27">
          <mxGeometry relative="1" as="geometry">
            <Array as="points">
              <mxPoint x="380" y="245" />
            </Array>
          </mxGeometry>
        </mxCell>
        <mxCell id="UbQwp_BWANUmea5kKcZG-61" value="server files" style="rounded=0;whiteSpace=wrap;html=1;" vertex="1" parent="1">
          <mxGeometry x="160" y="550" width="120" height="60" as="geometry" />
        </mxCell>
        <mxCell id="UbQwp_BWANUmea5kKcZG-64" value="python bot" style="swimlane;fontStyle=0;childLayout=stackLayout;horizontal=1;startSize=30;horizontalStack=0;resizeParent=1;resizeParentMax=0;resizeLast=0;collapsible=1;marginBottom=0;whiteSpace=wrap;html=1;" vertex="1" parent="1">
          <mxGeometry x="520" y="360" width="140" height="60" as="geometry" />
        </mxCell>
        <mxCell id="UbQwp_BWANUmea5kKcZG-65" value="start server from dc command" style="text;strokeColor=none;fillColor=none;align=left;verticalAlign=middle;spacingLeft=4;spacingRight=4;overflow=hidden;points=[[0,0.5],[1,0.5]];portConstraint=eastwest;rotatable=0;whiteSpace=wrap;html=1;" vertex="1" parent="UbQwp_BWANUmea5kKcZG-64">
          <mxGeometry y="30" width="140" height="30" as="geometry" />
        </mxCell>
        <mxCell id="UbQwp_BWANUmea5kKcZG-68" style="edgeStyle=orthogonalEdgeStyle;rounded=0;orthogonalLoop=1;jettySize=auto;html=1;exitX=1;exitY=0.5;exitDx=0;exitDy=0;entryX=0;entryY=0.75;entryDx=0;entryDy=0;" edge="1" parent="1" source="UbQwp_BWANUmea5kKcZG-65" target="UbQwp_BWANUmea5kKcZG-40">
          <mxGeometry relative="1" as="geometry">
            <Array as="points">
              <mxPoint x="690" y="405" />
              <mxPoint x="690" y="465" />
            </Array>
          </mxGeometry>
        </mxCell>
      </root>
    </mxGraphModel>
  </diagram>
</mxfile>
